<svg width="19" height="18" viewBox="0 0 19 18" fill="none" xmlns="http://www.w3.org/2000/svg">
<path d="M17.9213 7.99053C17.8436 7.91482 17.74 7.86435 17.6364 7.86435H1.37229C1.26869 7.86435 1.1651 7.91482 1.08741 7.99053C1.00971 8.06624 0.983814 8.19243 1.00971 8.29337L2.30462 15.1577C2.51181 16.2177 3.57364 17 4.81675 17H14.166C15.4091 17 16.471 16.2177 16.6781 15.1577L17.9731 8.29337C18.0248 8.19243 17.999 8.06624 17.9213 7.99053ZM15.953 15.0315C15.8235 15.7382 15.0724 16.2681 14.166 16.2681H4.81675C3.91031 16.2681 3.18516 15.7382 3.02977 15.0315L1.81256 8.59621H17.1702L15.953 15.0315Z" fill="#282930"/>
<path d="M4.0139 6.85489C4.45417 6.85489 4.79084 6.50158 4.79084 6.09779C4.79084 5.8959 4.71315 5.71925 4.58366 5.56783L5.25701 2.36278C5.33471 2.00946 5.80087 1.73186 6.34474 1.73186H12.638C13.1819 1.73186 13.648 2.00946 13.7257 2.36278L14.425 5.56783C14.2955 5.69401 14.2178 5.8959 14.2178 6.09779C14.2178 6.52682 14.5804 6.85489 14.9947 6.85489C15.435 6.85489 15.7717 6.50158 15.7717 6.09779C15.7717 5.71924 15.4868 5.41641 15.1242 5.3407L14.4509 2.21136C14.2955 1.50473 13.5444 1 12.638 1H6.34474C5.4383 1 4.68725 1.50473 4.53186 2.21136L3.85851 5.3407C3.49593 5.41641 3.21105 5.71924 3.21105 6.09779C3.23695 6.52682 3.59952 6.85489 4.0139 6.85489Z" fill="#282930"/>
<path d="M17.9213 7.99053C17.8436 7.91482 17.74 7.86435 17.6364 7.86435H1.37229C1.26869 7.86435 1.1651 7.91482 1.08741 7.99053C1.00971 8.06624 0.983814 8.19243 1.00971 8.29337L2.30462 15.1577C2.51181 16.2177 3.57364 17 4.81675 17H14.166C15.4091 17 16.471 16.2177 16.6781 15.1577L17.9731 8.29337C18.0248 8.19243 17.999 8.06624 17.9213 7.99053ZM15.953 15.0315C15.8235 15.7382 15.0724 16.2681 14.166 16.2681H4.81675C3.91031 16.2681 3.18516 15.7382 3.02977 15.0315L1.81256 8.59621H17.1702L15.953 15.0315Z" stroke="black" stroke-width="0.5"/>
<path d="M4.0139 6.85489C4.45417 6.85489 4.79084 6.50158 4.79084 6.09779C4.79084 5.8959 4.71315 5.71925 4.58366 5.56783L5.25701 2.36278C5.33471 2.00946 5.80087 1.73186 6.34474 1.73186H12.638C13.1819 1.73186 13.648 2.00946 13.7257 2.36278L14.425 5.56783C14.2955 5.69401 14.2178 5.8959 14.2178 6.09779C14.2178 6.52682 14.5804 6.85489 14.9947 6.85489C15.435 6.85489 15.7717 6.50158 15.7717 6.09779C15.7717 5.71924 15.4868 5.41641 15.1242 5.3407L14.4509 2.21136C14.2955 1.50473 13.5444 1 12.638 1H6.34474C5.4383 1 4.68725 1.50473 4.53186 2.21136L3.85851 5.3407C3.49593 5.41641 3.21105 5.71924 3.21105 6.09779C3.23695 6.52682 3.59952 6.85489 4.0139 6.85489Z" stroke="black" stroke-width="0.5"/>
</svg>
