<svg width="16" height="17" viewBox="0 0 16 17" fill="none" xmlns="http://www.w3.org/2000/svg">
<path fill-rule="evenodd" clip-rule="evenodd" d="M11.4286 16.5H4.57143C3.35901 16.5 2.19625 16.0252 1.33894 15.1799C0.481628 14.3347 0 13.1883 0 11.993V5.00704C0 3.8117 0.481628 2.66532 1.33894 1.82008C2.19625 0.974848 3.35901 0.5 4.57143 0.5H11.4286C12.641 0.5 13.8038 0.974848 14.6611 1.82008C15.5184 2.66532 16 3.8117 16 5.00704V11.993C16 12.5848 15.8818 13.1709 15.652 13.7177C15.4223 14.2645 15.0856 14.7614 14.6611 15.1799C14.2366 15.5984 13.7326 15.9304 13.178 16.1569C12.6234 16.3834 12.0289 16.5 11.4286 16.5ZM14.5143 4.66901C14.5143 3.92193 14.2133 3.20544 13.6774 2.67716C13.1416 2.14889 12.4149 1.85211 11.6571 1.85211H4.22857C3.47081 1.85211 2.74409 2.14889 2.20827 2.67716C1.67245 3.20544 1.37143 3.92193 1.37143 4.66901V11.993C1.37143 12.74 1.67245 13.4565 2.20827 13.9848C2.74409 14.5131 3.47081 14.8099 4.22857 14.8099H11.6571C12.4149 14.8099 13.1416 14.5131 13.6774 13.9848C14.2133 13.4565 14.5143 12.74 14.5143 11.993V4.66901ZM12.2286 5.11972C12.0251 5.11972 11.8263 5.06024 11.6571 4.94881C11.488 4.83738 11.3561 4.67901 11.2783 4.49371C11.2004 4.30841 11.1801 4.10451 11.2198 3.9078C11.2595 3.71108 11.3574 3.53039 11.5013 3.38857C11.6451 3.24675 11.8284 3.15016 12.0279 3.11103C12.2274 3.07191 12.4342 3.09199 12.6222 3.16874C12.8101 3.2455 12.9708 3.37547 13.0838 3.54224C13.1968 3.709 13.2571 3.90507 13.2571 4.10563C13.2571 4.37459 13.1488 4.63252 12.9559 4.8227C12.763 5.01288 12.5014 5.11972 12.2286 5.11972ZM7.94286 12.5563C7.11783 12.5563 6.31132 12.3151 5.62533 11.8632C4.93935 11.4113 4.40469 10.769 4.08896 10.0175C3.77324 9.26602 3.69062 8.4391 3.85158 7.64132C4.01253 6.84354 4.40982 6.11073 4.99321 5.53556C5.57659 4.96039 6.31987 4.5687 7.12905 4.41001C7.93822 4.25132 8.77696 4.33277 9.53919 4.64404C10.3014 4.95532 10.9529 5.48246 11.4113 6.15878C11.8696 6.83511 12.1143 7.63025 12.1143 8.44366C12.1143 9.53441 11.6748 10.5805 10.8925 11.3518C10.1102 12.123 9.04919 12.5563 7.94286 12.5563ZM7.94286 5.79577C7.41167 5.79577 6.89242 5.95107 6.45075 6.24202C6.00909 6.53298 5.66485 6.94652 5.46158 7.43036C5.2583 7.9142 5.20512 8.4466 5.30875 8.96024C5.41238 9.47388 5.66816 9.94569 6.04376 10.316C6.41937 10.6863 6.89793 10.9385 7.4189 11.0407C7.93988 11.1428 8.47988 11.0904 8.97063 10.89C9.46138 10.6896 9.88084 10.3502 10.1759 9.91475C10.4711 9.47931 10.6286 8.96736 10.6286 8.44366C10.6286 7.7414 10.3456 7.0679 9.84195 6.57132C9.33828 6.07475 8.65515 5.79577 7.94286 5.79577Z" fill="#FF20A7"/>
<path fill-rule="evenodd" clip-rule="evenodd" d="M11.4286 16.5H4.57143C3.35901 16.5 2.19625 16.0252 1.33894 15.1799C0.481628 14.3347 0 13.1883 0 11.993V5.00704C0 3.8117 0.481628 2.66532 1.33894 1.82008C2.19625 0.974848 3.35901 0.5 4.57143 0.5H11.4286C12.641 0.5 13.8038 0.974848 14.6611 1.82008C15.5184 2.66532 16 3.8117 16 5.00704V11.993C16 12.5848 15.8818 13.1709 15.652 13.7177C15.4223 14.2645 15.0856 14.7614 14.6611 15.1799C14.2366 15.5984 13.7326 15.9304 13.178 16.1569C12.6234 16.3834 12.0289 16.5 11.4286 16.5ZM14.5143 4.66901C14.5143 3.92193 14.2133 3.20544 13.6774 2.67716C13.1416 2.14889 12.4149 1.85211 11.6571 1.85211H4.22857C3.47081 1.85211 2.74409 2.14889 2.20827 2.67716C1.67245 3.20544 1.37143 3.92193 1.37143 4.66901V11.993C1.37143 12.74 1.67245 13.4565 2.20827 13.9848C2.74409 14.5131 3.47081 14.8099 4.22857 14.8099H11.6571C12.4149 14.8099 13.1416 14.5131 13.6774 13.9848C14.2133 13.4565 14.5143 12.74 14.5143 11.993V4.66901ZM12.2286 5.11972C12.0251 5.11972 11.8263 5.06024 11.6571 4.94881C11.488 4.83738 11.3561 4.67901 11.2783 4.49371C11.2004 4.30841 11.1801 4.10451 11.2198 3.9078C11.2595 3.71108 11.3574 3.53039 11.5013 3.38857C11.6451 3.24675 11.8284 3.15016 12.0279 3.11103C12.2274 3.07191 12.4342 3.09199 12.6222 3.16874C12.8101 3.2455 12.9708 3.37547 13.0838 3.54224C13.1968 3.709 13.2571 3.90507 13.2571 4.10563C13.2571 4.37459 13.1488 4.63252 12.9559 4.8227C12.763 5.01288 12.5014 5.11972 12.2286 5.11972ZM7.94286 12.5563C7.11783 12.5563 6.31132 12.3151 5.62533 11.8632C4.93935 11.4113 4.40469 10.769 4.08896 10.0175C3.77324 9.26602 3.69062 8.4391 3.85158 7.64132C4.01253 6.84354 4.40982 6.11073 4.99321 5.53556C5.57659 4.96039 6.31987 4.5687 7.12905 4.41001C7.93822 4.25132 8.77696 4.33277 9.53919 4.64404C10.3014 4.95532 10.9529 5.48246 11.4113 6.15878C11.8696 6.83511 12.1143 7.63025 12.1143 8.44366C12.1143 9.53441 11.6748 10.5805 10.8925 11.3518C10.1102 12.123 9.04919 12.5563 7.94286 12.5563ZM7.94286 5.79577C7.41167 5.79577 6.89242 5.95107 6.45075 6.24202C6.00909 6.53298 5.66485 6.94652 5.46158 7.43036C5.2583 7.9142 5.20512 8.4466 5.30875 8.96024C5.41238 9.47388 5.66816 9.94569 6.04376 10.316C6.41937 10.6863 6.89793 10.9385 7.4189 11.0407C7.93988 11.1428 8.47988 11.0904 8.97063 10.89C9.46138 10.6896 9.88084 10.3502 10.1759 9.91475C10.4711 9.47931 10.6286 8.96736 10.6286 8.44366C10.6286 7.7414 10.3456 7.0679 9.84195 6.57132C9.33828 6.07475 8.65515 5.79577 7.94286 5.79577Z" fill="url(#paint0_radial_12172_2188)"/>
<path fill-rule="evenodd" clip-rule="evenodd" d="M11.4286 16.5H4.57143C3.35901 16.5 2.19625 16.0252 1.33894 15.1799C0.481628 14.3347 0 13.1883 0 11.993V5.00704C0 3.8117 0.481628 2.66532 1.33894 1.82008C2.19625 0.974848 3.35901 0.5 4.57143 0.5H11.4286C12.641 0.5 13.8038 0.974848 14.6611 1.82008C15.5184 2.66532 16 3.8117 16 5.00704V11.993C16 12.5848 15.8818 13.1709 15.652 13.7177C15.4223 14.2645 15.0856 14.7614 14.6611 15.1799C14.2366 15.5984 13.7326 15.9304 13.178 16.1569C12.6234 16.3834 12.0289 16.5 11.4286 16.5ZM14.5143 4.66901C14.5143 3.92193 14.2133 3.20544 13.6774 2.67716C13.1416 2.14889 12.4149 1.85211 11.6571 1.85211H4.22857C3.47081 1.85211 2.74409 2.14889 2.20827 2.67716C1.67245 3.20544 1.37143 3.92193 1.37143 4.66901V11.993C1.37143 12.74 1.67245 13.4565 2.20827 13.9848C2.74409 14.5131 3.47081 14.8099 4.22857 14.8099H11.6571C12.4149 14.8099 13.1416 14.5131 13.6774 13.9848C14.2133 13.4565 14.5143 12.74 14.5143 11.993V4.66901ZM12.2286 5.11972C12.0251 5.11972 11.8263 5.06024 11.6571 4.94881C11.488 4.83738 11.3561 4.67901 11.2783 4.49371C11.2004 4.30841 11.1801 4.10451 11.2198 3.9078C11.2595 3.71108 11.3574 3.53039 11.5013 3.38857C11.6451 3.24675 11.8284 3.15016 12.0279 3.11103C12.2274 3.07191 12.4342 3.09199 12.6222 3.16874C12.8101 3.2455 12.9708 3.37547 13.0838 3.54224C13.1968 3.709 13.2571 3.90507 13.2571 4.10563C13.2571 4.37459 13.1488 4.63252 12.9559 4.8227C12.763 5.01288 12.5014 5.11972 12.2286 5.11972ZM7.94286 12.5563C7.11783 12.5563 6.31132 12.3151 5.62533 11.8632C4.93935 11.4113 4.40469 10.769 4.08896 10.0175C3.77324 9.26602 3.69062 8.4391 3.85158 7.64132C4.01253 6.84354 4.40982 6.11073 4.99321 5.53556C5.57659 4.96039 6.31987 4.5687 7.12905 4.41001C7.93822 4.25132 8.77696 4.33277 9.53919 4.64404C10.3014 4.95532 10.9529 5.48246 11.4113 6.15878C11.8696 6.83511 12.1143 7.63025 12.1143 8.44366C12.1143 9.53441 11.6748 10.5805 10.8925 11.3518C10.1102 12.123 9.04919 12.5563 7.94286 12.5563ZM7.94286 5.79577C7.41167 5.79577 6.89242 5.95107 6.45075 6.24202C6.00909 6.53298 5.66485 6.94652 5.46158 7.43036C5.2583 7.9142 5.20512 8.4466 5.30875 8.96024C5.41238 9.47388 5.66816 9.94569 6.04376 10.316C6.41937 10.6863 6.89793 10.9385 7.4189 11.0407C7.93988 11.1428 8.47988 11.0904 8.97063 10.89C9.46138 10.6896 9.88084 10.3502 10.1759 9.91475C10.4711 9.47931 10.6286 8.96736 10.6286 8.44366C10.6286 7.7414 10.3456 7.0679 9.84195 6.57132C9.33828 6.07475 8.65515 5.79577 7.94286 5.79577Z" fill="url(#paint1_radial_12172_2188)"/>
<path fill-rule="evenodd" clip-rule="evenodd" d="M11.4286 16.5H4.57143C3.35901 16.5 2.19625 16.0252 1.33894 15.1799C0.481628 14.3347 0 13.1883 0 11.993V5.00704C0 3.8117 0.481628 2.66532 1.33894 1.82008C2.19625 0.974848 3.35901 0.5 4.57143 0.5H11.4286C12.641 0.5 13.8038 0.974848 14.6611 1.82008C15.5184 2.66532 16 3.8117 16 5.00704V11.993C16 12.5848 15.8818 13.1709 15.652 13.7177C15.4223 14.2645 15.0856 14.7614 14.6611 15.1799C14.2366 15.5984 13.7326 15.9304 13.178 16.1569C12.6234 16.3834 12.0289 16.5 11.4286 16.5ZM14.5143 4.66901C14.5143 3.92193 14.2133 3.20544 13.6774 2.67716C13.1416 2.14889 12.4149 1.85211 11.6571 1.85211H4.22857C3.47081 1.85211 2.74409 2.14889 2.20827 2.67716C1.67245 3.20544 1.37143 3.92193 1.37143 4.66901V11.993C1.37143 12.74 1.67245 13.4565 2.20827 13.9848C2.74409 14.5131 3.47081 14.8099 4.22857 14.8099H11.6571C12.4149 14.8099 13.1416 14.5131 13.6774 13.9848C14.2133 13.4565 14.5143 12.74 14.5143 11.993V4.66901ZM12.2286 5.11972C12.0251 5.11972 11.8263 5.06024 11.6571 4.94881C11.488 4.83738 11.3561 4.67901 11.2783 4.49371C11.2004 4.30841 11.1801 4.10451 11.2198 3.9078C11.2595 3.71108 11.3574 3.53039 11.5013 3.38857C11.6451 3.24675 11.8284 3.15016 12.0279 3.11103C12.2274 3.07191 12.4342 3.09199 12.6222 3.16874C12.8101 3.2455 12.9708 3.37547 13.0838 3.54224C13.1968 3.709 13.2571 3.90507 13.2571 4.10563C13.2571 4.37459 13.1488 4.63252 12.9559 4.8227C12.763 5.01288 12.5014 5.11972 12.2286 5.11972ZM7.94286 12.5563C7.11783 12.5563 6.31132 12.3151 5.62533 11.8632C4.93935 11.4113 4.40469 10.769 4.08896 10.0175C3.77324 9.26602 3.69062 8.4391 3.85158 7.64132C4.01253 6.84354 4.40982 6.11073 4.99321 5.53556C5.57659 4.96039 6.31987 4.5687 7.12905 4.41001C7.93822 4.25132 8.77696 4.33277 9.53919 4.64404C10.3014 4.95532 10.9529 5.48246 11.4113 6.15878C11.8696 6.83511 12.1143 7.63025 12.1143 8.44366C12.1143 9.53441 11.6748 10.5805 10.8925 11.3518C10.1102 12.123 9.04919 12.5563 7.94286 12.5563ZM7.94286 5.79577C7.41167 5.79577 6.89242 5.95107 6.45075 6.24202C6.00909 6.53298 5.66485 6.94652 5.46158 7.43036C5.2583 7.9142 5.20512 8.4466 5.30875 8.96024C5.41238 9.47388 5.66816 9.94569 6.04376 10.316C6.41937 10.6863 6.89793 10.9385 7.4189 11.0407C7.93988 11.1428 8.47988 11.0904 8.97063 10.89C9.46138 10.6896 9.88084 10.3502 10.1759 9.91475C10.4711 9.47931 10.6286 8.96736 10.6286 8.44366C10.6286 7.7414 10.3456 7.0679 9.84195 6.57132C9.33828 6.07475 8.65515 5.79577 7.94286 5.79577Z" fill="#343433"/>
<defs>
<radialGradient id="paint0_radial_12172_2188" cx="0" cy="0" r="1" gradientUnits="userSpaceOnUse" gradientTransform="translate(4 16) rotate(106.302) scale(11.044)">
<stop stop-color="#FFFCB2"/>
<stop offset="0.233898" stop-color="#FFB21C" stop-opacity="0.81768"/>
<stop offset="1" stop-color="#FF24BE" stop-opacity="0"/>
</radialGradient>
<radialGradient id="paint1_radial_12172_2188" cx="0" cy="0" r="1" gradientUnits="userSpaceOnUse" gradientTransform="translate(3.8 0.5) rotate(75.3027) scale(6.30635 14.7887)">
<stop stop-color="#2E62DF"/>
<stop offset="1" stop-color="#6E48D8" stop-opacity="0"/>
</radialGradient>
</defs>
</svg>
