<svg display="none" xmlns="http://www.w3.org/2000/svg">
    <symbol id="cart" viewBox="0 0 19 18">
        <g>
            <path d="M17.9213 7.99053C17.8436 7.91482 17.74 7.86435 17.6364 7.86435H1.37229C1.26869 7.86435 1.1651 7.91482 1.08741 7.99053C1.00971 8.06624 0.983814 8.19243 1.00971 8.29337L2.30462 15.1577C2.51181 16.2177 3.57364 17 4.81675 17H14.166C15.4091 17 16.471 16.2177 16.6781 15.1577L17.9731 8.29337C18.0248 8.19243 17.999 8.06624 17.9213 7.99053ZM15.953 15.0315C15.8235 15.7382 15.0724 16.2681 14.166 16.2681H4.81675C3.91031 16.2681 3.18516 15.7382 3.02977 15.0315L1.81256 8.59621H17.1702L15.953 15.0315Z" fill="#282930"/>
            <path d="M4.0139 6.85489C4.45417 6.85489 4.79084 6.50158 4.79084 6.09779C4.79084 5.8959 4.71315 5.71925 4.58366 5.56783L5.25701 2.36278C5.33471 2.00946 5.80087 1.73186 6.34474 1.73186H12.638C13.1819 1.73186 13.648 2.00946 13.7257 2.36278L14.425 5.56783C14.2955 5.69401 14.2178 5.8959 14.2178 6.09779C14.2178 6.52682 14.5804 6.85489 14.9947 6.85489C15.435 6.85489 15.7717 6.50158 15.7717 6.09779C15.7717 5.71924 15.4868 5.41641 15.1242 5.3407L14.4509 2.21136C14.2955 1.50473 13.5444 1 12.638 1H6.34474C5.4383 1 4.68725 1.50473 4.53186 2.21136L3.85851 5.3407C3.49593 5.41641 3.21105 5.71924 3.21105 6.09779C3.23695 6.52682 3.59952 6.85489 4.0139 6.85489Z" fill="#282930"/>
            <path d="M17.9213 7.99053C17.8436 7.91482 17.74 7.86435 17.6364 7.86435H1.37229C1.26869 7.86435 1.1651 7.91482 1.08741 7.99053C1.00971 8.06624 0.983814 8.19243 1.00971 8.29337L2.30462 15.1577C2.51181 16.2177 3.57364 17 4.81675 17H14.166C15.4091 17 16.471 16.2177 16.6781 15.1577L17.9731 8.29337C18.0248 8.19243 17.999 8.06624 17.9213 7.99053ZM15.953 15.0315C15.8235 15.7382 15.0724 16.2681 14.166 16.2681H4.81675C3.91031 16.2681 3.18516 15.7382 3.02977 15.0315L1.81256 8.59621H17.1702L15.953 15.0315Z" stroke="black" stroke-width="0.5"/>
            <path d="M4.0139 6.85489C4.45417 6.85489 4.79084 6.50158 4.79084 6.09779C4.79084 5.8959 4.71315 5.71925 4.58366 5.56783L5.25701 2.36278C5.33471 2.00946 5.80087 1.73186 6.34474 1.73186H12.638C13.1819 1.73186 13.648 2.00946 13.7257 2.36278L14.425 5.56783C14.2955 5.69401 14.2178 5.8959 14.2178 6.09779C14.2178 6.52682 14.5804 6.85489 14.9947 6.85489C15.435 6.85489 15.7717 6.50158 15.7717 6.09779C15.7717 5.71924 15.4868 5.41641 15.1242 5.3407L14.4509 2.21136C14.2955 1.50473 13.5444 1 12.638 1H6.34474C5.4383 1 4.68725 1.50473 4.53186 2.21136L3.85851 5.3407C3.49593 5.41641 3.21105 5.71924 3.21105 6.09779C3.23695 6.52682 3.59952 6.85489 4.0139 6.85489Z" stroke="black" stroke-width="0.5"/>
        </g>
    </symbol>
    <symbol id="instagram" viewBox="0 0 16 17">
        <g>
            <path fill-rule="evenodd" clip-rule="evenodd" d="M11.4286 16.5H4.57143C3.35901 16.5 2.19625 16.0252 1.33894 15.1799C0.481628 14.3347 0 13.1883 0 11.993V5.00704C0 3.8117 0.481628 2.66532 1.33894 1.82008C2.19625 0.974848 3.35901 0.5 4.57143 0.5H11.4286C12.641 0.5 13.8038 0.974848 14.6611 1.82008C15.5184 2.66532 16 3.8117 16 5.00704V11.993C16 12.5848 15.8818 13.1709 15.652 13.7177C15.4223 14.2645 15.0856 14.7614 14.6611 15.1799C14.2366 15.5984 13.7326 15.9304 13.178 16.1569C12.6234 16.3834 12.0289 16.5 11.4286 16.5ZM14.5143 4.66901C14.5143 3.92193 14.2133 3.20544 13.6774 2.67716C13.1416 2.14889 12.4149 1.85211 11.6571 1.85211H4.22857C3.47081 1.85211 2.74409 2.14889 2.20827 2.67716C1.67245 3.20544 1.37143 3.92193 1.37143 4.66901V11.993C1.37143 12.74 1.67245 13.4565 2.20827 13.9848C2.74409 14.5131 3.47081 14.8099 4.22857 14.8099H11.6571C12.4149 14.8099 13.1416 14.5131 13.6774 13.9848C14.2133 13.4565 14.5143 12.74 14.5143 11.993V4.66901ZM12.2286 5.11972C12.0251 5.11972 11.8263 5.06024 11.6571 4.94881C11.488 4.83738 11.3561 4.67901 11.2783 4.49371C11.2004 4.30841 11.1801 4.10451 11.2198 3.9078C11.2595 3.71108 11.3574 3.53039 11.5013 3.38857C11.6451 3.24675 11.8284 3.15016 12.0279 3.11103C12.2274 3.07191 12.4342 3.09199 12.6222 3.16874C12.8101 3.2455 12.9708 3.37547 13.0838 3.54224C13.1968 3.709 13.2571 3.90507 13.2571 4.10563C13.2571 4.37459 13.1488 4.63252 12.9559 4.8227C12.763 5.01288 12.5014 5.11972 12.2286 5.11972ZM7.94286 12.5563C7.11783 12.5563 6.31132 12.3151 5.62533 11.8632C4.93935 11.4113 4.40469 10.769 4.08896 10.0175C3.77324 9.26602 3.69062 8.4391 3.85158 7.64132C4.01253 6.84354 4.40982 6.11073 4.99321 5.53556C5.57659 4.96039 6.31987 4.5687 7.12905 4.41001C7.93822 4.25132 8.77696 4.33277 9.53919 4.64404C10.3014 4.95532 10.9529 5.48246 11.4113 6.15878C11.8696 6.83511 12.1143 7.63025 12.1143 8.44366C12.1143 9.53441 11.6748 10.5805 10.8925 11.3518C10.1102 12.123 9.04919 12.5563 7.94286 12.5563ZM7.94286 5.79577C7.41167 5.79577 6.89242 5.95107 6.45075 6.24202C6.00909 6.53298 5.66485 6.94652 5.46158 7.43036C5.2583 7.9142 5.20512 8.4466 5.30875 8.96024C5.41238 9.47388 5.66816 9.94569 6.04376 10.316C6.41937 10.6863 6.89793 10.9385 7.4189 11.0407C7.93988 11.1428 8.47988 11.0904 8.97063 10.89C9.46138 10.6896 9.88084 10.3502 10.1759 9.91475C10.4711 9.47931 10.6286 8.96736 10.6286 8.44366C10.6286 7.7414 10.3456 7.0679 9.84195 6.57132C9.33828 6.07475 8.65515 5.79577 7.94286 5.79577Z" fill="#FF20A7"/>
            <path fill-rule="evenodd" clip-rule="evenodd" d="M11.4286 16.5H4.57143C3.35901 16.5 2.19625 16.0252 1.33894 15.1799C0.481628 14.3347 0 13.1883 0 11.993V5.00704C0 3.8117 0.481628 2.66532 1.33894 1.82008C2.19625 0.974848 3.35901 0.5 4.57143 0.5H11.4286C12.641 0.5 13.8038 0.974848 14.6611 1.82008C15.5184 2.66532 16 3.8117 16 5.00704V11.993C16 12.5848 15.8818 13.1709 15.652 13.7177C15.4223 14.2645 15.0856 14.7614 14.6611 15.1799C14.2366 15.5984 13.7326 15.9304 13.178 16.1569C12.6234 16.3834 12.0289 16.5 11.4286 16.5ZM14.5143 4.66901C14.5143 3.92193 14.2133 3.20544 13.6774 2.67716C13.1416 2.14889 12.4149 1.85211 11.6571 1.85211H4.22857C3.47081 1.85211 2.74409 2.14889 2.20827 2.67716C1.67245 3.20544 1.37143 3.92193 1.37143 4.66901V11.993C1.37143 12.74 1.67245 13.4565 2.20827 13.9848C2.74409 14.5131 3.47081 14.8099 4.22857 14.8099H11.6571C12.4149 14.8099 13.1416 14.5131 13.6774 13.9848C14.2133 13.4565 14.5143 12.74 14.5143 11.993V4.66901ZM12.2286 5.11972C12.0251 5.11972 11.8263 5.06024 11.6571 4.94881C11.488 4.83738 11.3561 4.67901 11.2783 4.49371C11.2004 4.30841 11.1801 4.10451 11.2198 3.9078C11.2595 3.71108 11.3574 3.53039 11.5013 3.38857C11.6451 3.24675 11.8284 3.15016 12.0279 3.11103C12.2274 3.07191 12.4342 3.09199 12.6222 3.16874C12.8101 3.2455 12.9708 3.37547 13.0838 3.54224C13.1968 3.709 13.2571 3.90507 13.2571 4.10563C13.2571 4.37459 13.1488 4.63252 12.9559 4.8227C12.763 5.01288 12.5014 5.11972 12.2286 5.11972ZM7.94286 12.5563C7.11783 12.5563 6.31132 12.3151 5.62533 11.8632C4.93935 11.4113 4.40469 10.769 4.08896 10.0175C3.77324 9.26602 3.69062 8.4391 3.85158 7.64132C4.01253 6.84354 4.40982 6.11073 4.99321 5.53556C5.57659 4.96039 6.31987 4.5687 7.12905 4.41001C7.93822 4.25132 8.77696 4.33277 9.53919 4.64404C10.3014 4.95532 10.9529 5.48246 11.4113 6.15878C11.8696 6.83511 12.1143 7.63025 12.1143 8.44366C12.1143 9.53441 11.6748 10.5805 10.8925 11.3518C10.1102 12.123 9.04919 12.5563 7.94286 12.5563ZM7.94286 5.79577C7.41167 5.79577 6.89242 5.95107 6.45075 6.24202C6.00909 6.53298 5.66485 6.94652 5.46158 7.43036C5.2583 7.9142 5.20512 8.4466 5.30875 8.96024C5.41238 9.47388 5.66816 9.94569 6.04376 10.316C6.41937 10.6863 6.89793 10.9385 7.4189 11.0407C7.93988 11.1428 8.47988 11.0904 8.97063 10.89C9.46138 10.6896 9.88084 10.3502 10.1759 9.91475C10.4711 9.47931 10.6286 8.96736 10.6286 8.44366C10.6286 7.7414 10.3456 7.0679 9.84195 6.57132C9.33828 6.07475 8.65515 5.79577 7.94286 5.79577Z" fill="url(#paint0_radial_12172_2188)"/>
            <path fill-rule="evenodd" clip-rule="evenodd" d="M11.4286 16.5H4.57143C3.35901 16.5 2.19625 16.0252 1.33894 15.1799C0.481628 14.3347 0 13.1883 0 11.993V5.00704C0 3.8117 0.481628 2.66532 1.33894 1.82008C2.19625 0.974848 3.35901 0.5 4.57143 0.5H11.4286C12.641 0.5 13.8038 0.974848 14.6611 1.82008C15.5184 2.66532 16 3.8117 16 5.00704V11.993C16 12.5848 15.8818 13.1709 15.652 13.7177C15.4223 14.2645 15.0856 14.7614 14.6611 15.1799C14.2366 15.5984 13.7326 15.9304 13.178 16.1569C12.6234 16.3834 12.0289 16.5 11.4286 16.5ZM14.5143 4.66901C14.5143 3.92193 14.2133 3.20544 13.6774 2.67716C13.1416 2.14889 12.4149 1.85211 11.6571 1.85211H4.22857C3.47081 1.85211 2.74409 2.14889 2.20827 2.67716C1.67245 3.20544 1.37143 3.92193 1.37143 4.66901V11.993C1.37143 12.74 1.67245 13.4565 2.20827 13.9848C2.74409 14.5131 3.47081 14.8099 4.22857 14.8099H11.6571C12.4149 14.8099 13.1416 14.5131 13.6774 13.9848C14.2133 13.4565 14.5143 12.74 14.5143 11.993V4.66901ZM12.2286 5.11972C12.0251 5.11972 11.8263 5.06024 11.6571 4.94881C11.488 4.83738 11.3561 4.67901 11.2783 4.49371C11.2004 4.30841 11.1801 4.10451 11.2198 3.9078C11.2595 3.71108 11.3574 3.53039 11.5013 3.38857C11.6451 3.24675 11.8284 3.15016 12.0279 3.11103C12.2274 3.07191 12.4342 3.09199 12.6222 3.16874C12.8101 3.2455 12.9708 3.37547 13.0838 3.54224C13.1968 3.709 13.2571 3.90507 13.2571 4.10563C13.2571 4.37459 13.1488 4.63252 12.9559 4.8227C12.763 5.01288 12.5014 5.11972 12.2286 5.11972ZM7.94286 12.5563C7.11783 12.5563 6.31132 12.3151 5.62533 11.8632C4.93935 11.4113 4.40469 10.769 4.08896 10.0175C3.77324 9.26602 3.69062 8.4391 3.85158 7.64132C4.01253 6.84354 4.40982 6.11073 4.99321 5.53556C5.57659 4.96039 6.31987 4.5687 7.12905 4.41001C7.93822 4.25132 8.77696 4.33277 9.53919 4.64404C10.3014 4.95532 10.9529 5.48246 11.4113 6.15878C11.8696 6.83511 12.1143 7.63025 12.1143 8.44366C12.1143 9.53441 11.6748 10.5805 10.8925 11.3518C10.1102 12.123 9.04919 12.5563 7.94286 12.5563ZM7.94286 5.79577C7.41167 5.79577 6.89242 5.95107 6.45075 6.24202C6.00909 6.53298 5.66485 6.94652 5.46158 7.43036C5.2583 7.9142 5.20512 8.4466 5.30875 8.96024C5.41238 9.47388 5.66816 9.94569 6.04376 10.316C6.41937 10.6863 6.89793 10.9385 7.4189 11.0407C7.93988 11.1428 8.47988 11.0904 8.97063 10.89C9.46138 10.6896 9.88084 10.3502 10.1759 9.91475C10.4711 9.47931 10.6286 8.96736 10.6286 8.44366C10.6286 7.7414 10.3456 7.0679 9.84195 6.57132C9.33828 6.07475 8.65515 5.79577 7.94286 5.79577Z" fill="url(#paint1_radial_12172_2188)"/>
            <path fill-rule="evenodd" clip-rule="evenodd" d="M11.4286 16.5H4.57143C3.35901 16.5 2.19625 16.0252 1.33894 15.1799C0.481628 14.3347 0 13.1883 0 11.993V5.00704C0 3.8117 0.481628 2.66532 1.33894 1.82008C2.19625 0.974848 3.35901 0.5 4.57143 0.5H11.4286C12.641 0.5 13.8038 0.974848 14.6611 1.82008C15.5184 2.66532 16 3.8117 16 5.00704V11.993C16 12.5848 15.8818 13.1709 15.652 13.7177C15.4223 14.2645 15.0856 14.7614 14.6611 15.1799C14.2366 15.5984 13.7326 15.9304 13.178 16.1569C12.6234 16.3834 12.0289 16.5 11.4286 16.5ZM14.5143 4.66901C14.5143 3.92193 14.2133 3.20544 13.6774 2.67716C13.1416 2.14889 12.4149 1.85211 11.6571 1.85211H4.22857C3.47081 1.85211 2.74409 2.14889 2.20827 2.67716C1.67245 3.20544 1.37143 3.92193 1.37143 4.66901V11.993C1.37143 12.74 1.67245 13.4565 2.20827 13.9848C2.74409 14.5131 3.47081 14.8099 4.22857 14.8099H11.6571C12.4149 14.8099 13.1416 14.5131 13.6774 13.9848C14.2133 13.4565 14.5143 12.74 14.5143 11.993V4.66901ZM12.2286 5.11972C12.0251 5.11972 11.8263 5.06024 11.6571 4.94881C11.488 4.83738 11.3561 4.67901 11.2783 4.49371C11.2004 4.30841 11.1801 4.10451 11.2198 3.9078C11.2595 3.71108 11.3574 3.53039 11.5013 3.38857C11.6451 3.24675 11.8284 3.15016 12.0279 3.11103C12.2274 3.07191 12.4342 3.09199 12.6222 3.16874C12.8101 3.2455 12.9708 3.37547 13.0838 3.54224C13.1968 3.709 13.2571 3.90507 13.2571 4.10563C13.2571 4.37459 13.1488 4.63252 12.9559 4.8227C12.763 5.01288 12.5014 5.11972 12.2286 5.11972ZM7.94286 12.5563C7.11783 12.5563 6.31132 12.3151 5.62533 11.8632C4.93935 11.4113 4.40469 10.769 4.08896 10.0175C3.77324 9.26602 3.69062 8.4391 3.85158 7.64132C4.01253 6.84354 4.40982 6.11073 4.99321 5.53556C5.57659 4.96039 6.31987 4.5687 7.12905 4.41001C7.93822 4.25132 8.77696 4.33277 9.53919 4.64404C10.3014 4.95532 10.9529 5.48246 11.4113 6.15878C11.8696 6.83511 12.1143 7.63025 12.1143 8.44366C12.1143 9.53441 11.6748 10.5805 10.8925 11.3518C10.1102 12.123 9.04919 12.5563 7.94286 12.5563ZM7.94286 5.79577C7.41167 5.79577 6.89242 5.95107 6.45075 6.24202C6.00909 6.53298 5.66485 6.94652 5.46158 7.43036C5.2583 7.9142 5.20512 8.4466 5.30875 8.96024C5.41238 9.47388 5.66816 9.94569 6.04376 10.316C6.41937 10.6863 6.89793 10.9385 7.4189 11.0407C7.93988 11.1428 8.47988 11.0904 8.97063 10.89C9.46138 10.6896 9.88084 10.3502 10.1759 9.91475C10.4711 9.47931 10.6286 8.96736 10.6286 8.44366C10.6286 7.7414 10.3456 7.0679 9.84195 6.57132C9.33828 6.07475 8.65515 5.79577 7.94286 5.79577Z" fill="#343433"/>
        </g>
    </symbol>
    <symbol id="watsapp" viewBox="0 0 15 16">
        <g>
            <path fill-rule="evenodd" clip-rule="evenodd" d="M4.06675 6.32194C4.0409 5.97855 4.10829 5.63455 4.2619 5.32606C4.3087 5.20316 4.37375 5.08795 4.45487 4.98429C4.59968 4.78913 4.79317 4.63507 5.01615 4.53737C5.01615 4.53737 5.67887 4.47256 5.73622 4.56132C6.04333 5.09249 6.30026 5.65093 6.50369 6.22944C6.60513 6.6078 6.07254 7.03966 6.07254 7.03966C6.07254 7.03966 5.73512 7.21104 6.07254 7.63543C6.32396 7.95216 6.7518 8.5041 7.00873 8.70789C7.28013 8.92916 7.56886 9.12846 7.87215 9.30388C8.49958 9.65049 8.61646 9.61358 8.61646 9.61358C8.61646 9.61358 8.73224 9.66071 9.04761 9.23236C9.21632 9.00495 9.40047 8.73799 9.5758 8.68416C9.7787 8.62231 11.4173 9.55986 11.3522 9.49438C11.4669 9.60962 11.3765 9.97908 11.3765 9.97908C11.3765 9.97908 11.4118 10.3924 10.7877 10.8689C10.3764 11.1833 9.69598 11.2581 9.69598 11.2581C9.2676 11.2275 8.84656 11.1312 8.44775 10.9724C7.78282 10.7227 7.08039 10.5126 6.16846 9.68565C5.53496 9.11253 4.9846 8.45439 4.53319 7.73013C4.05351 6.90607 4.06675 6.32194 4.06675 6.32194ZM7.64388 15.1664C6.37245 15.1682 5.12233 14.8409 4.016 14.2167L0 15.5L1.31992 11.5927C0.48696 10.2029 0.138971 8.57759 0.330189 6.97013C0.521407 5.36267 1.24108 3.86341 2.37704 2.7061C3.51299 1.54878 5.00139 0.798447 6.61016 0.572074C8.21893 0.345701 9.85769 0.65601 11.2709 1.45462C12.6842 2.25324 13.7924 3.49527 14.423 4.9871C15.0536 6.47892 15.171 8.13669 14.757 9.70196C14.3429 11.2672 13.4207 12.652 12.134 13.6404C10.8474 14.6289 9.26862 15.1654 7.64388 15.1664ZM7.63174 1.7489C6.50178 1.74471 5.39256 2.05104 4.42601 2.6342C3.45946 3.21735 2.67302 4.05475 2.15319 5.05432C1.63335 6.05389 1.40024 7.17692 1.47948 8.29992C1.55873 9.42292 1.94727 10.5024 2.60237 11.4197L2.01683 13.1884L2.01904 13.1901L1.84812 13.689L2.84164 13.3951C2.84006 13.3932 2.8382 13.3916 2.83613 13.3902L4.19907 12.9629C4.99706 13.4999 5.9104 13.843 6.86567 13.9644C7.82093 14.0858 8.79147 13.9822 9.69924 13.6619C10.607 13.3417 11.4267 12.8137 12.0924 12.1204C12.7581 11.4271 13.2512 10.5879 13.5321 9.67016C13.813 8.75245 13.8739 7.78188 13.7098 6.83647C13.5458 5.89107 13.1613 4.9972 12.5874 4.22675C12.0135 3.4563 11.2662 2.83075 10.4055 2.4004C9.54479 1.97005 8.59474 1.7469 7.63174 1.7489Z" fill="#00C232"/>
            <path fill-rule="evenodd" clip-rule="evenodd" d="M4.06675 6.32194C4.0409 5.97855 4.10829 5.63455 4.2619 5.32606C4.3087 5.20316 4.37375 5.08795 4.45487 4.98429C4.59968 4.78913 4.79317 4.63507 5.01615 4.53737C5.01615 4.53737 5.67887 4.47256 5.73622 4.56132C6.04333 5.09249 6.30026 5.65093 6.50369 6.22944C6.60513 6.6078 6.07254 7.03966 6.07254 7.03966C6.07254 7.03966 5.73512 7.21104 6.07254 7.63543C6.32396 7.95216 6.7518 8.5041 7.00873 8.70789C7.28013 8.92916 7.56886 9.12846 7.87215 9.30388C8.49958 9.65049 8.61646 9.61358 8.61646 9.61358C8.61646 9.61358 8.73224 9.66071 9.04761 9.23236C9.21632 9.00495 9.40047 8.73799 9.5758 8.68416C9.7787 8.62231 11.4173 9.55986 11.3522 9.49438C11.4669 9.60962 11.3765 9.97908 11.3765 9.97908C11.3765 9.97908 11.4118 10.3924 10.7877 10.8689C10.3764 11.1833 9.69598 11.2581 9.69598 11.2581C9.2676 11.2275 8.84656 11.1312 8.44775 10.9724C7.78282 10.7227 7.08039 10.5126 6.16846 9.68565C5.53496 9.11253 4.9846 8.45439 4.53319 7.73013C4.05351 6.90607 4.06675 6.32194 4.06675 6.32194ZM7.64388 15.1664C6.37245 15.1682 5.12233 14.8409 4.016 14.2167L0 15.5L1.31992 11.5927C0.48696 10.2029 0.138971 8.57759 0.330189 6.97013C0.521407 5.36267 1.24108 3.86341 2.37704 2.7061C3.51299 1.54878 5.00139 0.798447 6.61016 0.572074C8.21893 0.345701 9.85769 0.65601 11.2709 1.45462C12.6842 2.25324 13.7924 3.49527 14.423 4.9871C15.0536 6.47892 15.171 8.13669 14.757 9.70196C14.3429 11.2672 13.4207 12.652 12.134 13.6404C10.8474 14.6289 9.26862 15.1654 7.64388 15.1664ZM7.63174 1.7489C6.50178 1.74471 5.39256 2.05104 4.42601 2.6342C3.45946 3.21735 2.67302 4.05475 2.15319 5.05432C1.63335 6.05389 1.40024 7.17692 1.47948 8.29992C1.55873 9.42292 1.94727 10.5024 2.60237 11.4197L2.01683 13.1884L2.01904 13.1901L1.84812 13.689L2.84164 13.3951C2.84006 13.3932 2.8382 13.3916 2.83613 13.3902L4.19907 12.9629C4.99706 13.4999 5.9104 13.843 6.86567 13.9644C7.82093 14.0858 8.79147 13.9822 9.69924 13.6619C10.607 13.3417 11.4267 12.8137 12.0924 12.1204C12.7581 11.4271 13.2512 10.5879 13.5321 9.67016C13.813 8.75245 13.8739 7.78188 13.7098 6.83647C13.5458 5.89107 13.1613 4.9972 12.5874 4.22675C12.0135 3.4563 11.2662 2.83075 10.4055 2.4004C9.54479 1.97005 8.59474 1.7469 7.63174 1.7489Z" fill="white"/>
            <path fill-rule="evenodd" clip-rule="evenodd" d="M4.06675 6.32194C4.0409 5.97855 4.10829 5.63455 4.2619 5.32606C4.3087 5.20316 4.37375 5.08795 4.45487 4.98429C4.59968 4.78913 4.79317 4.63507 5.01615 4.53737C5.01615 4.53737 5.67887 4.47256 5.73622 4.56132C6.04333 5.09249 6.30026 5.65093 6.50369 6.22944C6.60513 6.6078 6.07254 7.03966 6.07254 7.03966C6.07254 7.03966 5.73512 7.21104 6.07254 7.63543C6.32396 7.95216 6.7518 8.5041 7.00873 8.70789C7.28013 8.92916 7.56886 9.12846 7.87215 9.30388C8.49958 9.65049 8.61646 9.61358 8.61646 9.61358C8.61646 9.61358 8.73224 9.66071 9.04761 9.23236C9.21632 9.00495 9.40047 8.73799 9.5758 8.68416C9.7787 8.62231 11.4173 9.55986 11.3522 9.49438C11.4669 9.60962 11.3765 9.97908 11.3765 9.97908C11.3765 9.97908 11.4118 10.3924 10.7877 10.8689C10.3764 11.1833 9.69598 11.2581 9.69598 11.2581C9.2676 11.2275 8.84656 11.1312 8.44775 10.9724C7.78282 10.7227 7.08039 10.5126 6.16846 9.68565C5.53496 9.11253 4.9846 8.45439 4.53319 7.73013C4.05351 6.90607 4.06675 6.32194 4.06675 6.32194ZM7.64388 15.1664C6.37245 15.1682 5.12233 14.8409 4.016 14.2167L0 15.5L1.31992 11.5927C0.48696 10.2029 0.138971 8.57759 0.330189 6.97013C0.521407 5.36267 1.24108 3.86341 2.37704 2.7061C3.51299 1.54878 5.00139 0.798447 6.61016 0.572074C8.21893 0.345701 9.85769 0.65601 11.2709 1.45462C12.6842 2.25324 13.7924 3.49527 14.423 4.9871C15.0536 6.47892 15.171 8.13669 14.757 9.70196C14.3429 11.2672 13.4207 12.652 12.134 13.6404C10.8474 14.6289 9.26862 15.1654 7.64388 15.1664ZM7.63174 1.7489C6.50178 1.74471 5.39256 2.05104 4.42601 2.6342C3.45946 3.21735 2.67302 4.05475 2.15319 5.05432C1.63335 6.05389 1.40024 7.17692 1.47948 8.29992C1.55873 9.42292 1.94727 10.5024 2.60237 11.4197L2.01683 13.1884L2.01904 13.1901L1.84812 13.689L2.84164 13.3951C2.84006 13.3932 2.8382 13.3916 2.83613 13.3902L4.19907 12.9629C4.99706 13.4999 5.9104 13.843 6.86567 13.9644C7.82093 14.0858 8.79147 13.9822 9.69924 13.6619C10.607 13.3417 11.4267 12.8137 12.0924 12.1204C12.7581 11.4271 13.2512 10.5879 13.5321 9.67016C13.813 8.75245 13.8739 7.78188 13.7098 6.83647C13.5458 5.89107 13.1613 4.9972 12.5874 4.22675C12.0135 3.4563 11.2662 2.83075 10.4055 2.4004C9.54479 1.97005 8.59474 1.7469 7.63174 1.7489Z" fill="black"/>
        </g>
    </symbol>
    <symbol id="telegram" viewBox="0 0 14 13">
        <g>
            <path d="M0.858304 5.72604C0.858304 5.72604 7.05017 3.09178 9.19764 2.16423C10.0208 1.79321 12.8125 0.60594 12.8125 0.60594C12.8125 0.60594 14.101 0.0865099 13.9936 1.34798C13.9579 1.86741 13.6715 3.68542 13.3852 5.65183C12.9557 8.43449 12.4904 11.4769 12.4904 11.4769C12.4904 11.4769 12.4188 12.3302 11.8104 12.4786C11.2019 12.627 10.1998 11.9592 10.0208 11.8108C9.87767 11.6995 7.3365 10.0299 6.40593 9.21364C6.15539 8.99102 5.86906 8.5458 6.44172 8.02637C7.7302 6.802 9.26922 5.28081 10.1998 4.31615C10.6293 3.87093 11.0588 2.83207 9.26922 4.09354C6.72805 5.91155 4.22267 7.61825 4.22267 7.61825C4.22267 7.61825 3.65001 7.98927 2.57628 7.65535C1.50254 7.32143 0.249856 6.8762 0.249856 6.8762C0.249856 6.8762 -0.609131 6.31967 0.858304 5.72604Z" fill="black"/>
        </g>
    </symbol>
</svg>