<svg width="14" height="13" viewBox="0 0 14 13" fill="none" xmlns="http://www.w3.org/2000/svg">
<path d="M0.858304 5.72604C0.858304 5.72604 7.05017 3.09178 9.19764 2.16423C10.0208 1.79321 12.8125 0.60594 12.8125 0.60594C12.8125 0.60594 14.101 0.0865099 13.9936 1.34798C13.9579 1.86741 13.6715 3.68542 13.3852 5.65183C12.9557 8.43449 12.4904 11.4769 12.4904 11.4769C12.4904 11.4769 12.4188 12.3302 11.8104 12.4786C11.2019 12.627 10.1998 11.9592 10.0208 11.8108C9.87767 11.6995 7.3365 10.0299 6.40593 9.21364C6.15539 8.99102 5.86906 8.5458 6.44172 8.02637C7.7302 6.802 9.26922 5.28081 10.1998 4.31615C10.6293 3.87093 11.0588 2.83207 9.26922 4.09354C6.72805 5.91155 4.22267 7.61825 4.22267 7.61825C4.22267 7.61825 3.65001 7.98927 2.57628 7.65535C1.50254 7.32143 0.249856 6.8762 0.249856 6.8762C0.249856 6.8762 -0.609131 6.31967 0.858304 5.72604Z" fill="black"/>
</svg>
