<svg width="15" height="16" viewBox="0 0 15 16" fill="none" xmlns="http://www.w3.org/2000/svg">
<path fill-rule="evenodd" clip-rule="evenodd" d="M4.06675 6.32194C4.0409 5.97855 4.10829 5.63455 4.2619 5.32606C4.3087 5.20316 4.37375 5.08795 4.45487 4.98429C4.59968 4.78913 4.79317 4.63507 5.01615 4.53737C5.01615 4.53737 5.67887 4.47256 5.73622 4.56132C6.04333 5.09249 6.30026 5.65093 6.50369 6.22944C6.60513 6.6078 6.07254 7.03966 6.07254 7.03966C6.07254 7.03966 5.73512 7.21104 6.07254 7.63543C6.32396 7.95216 6.7518 8.5041 7.00873 8.70789C7.28013 8.92916 7.56886 9.12846 7.87215 9.30388C8.49958 9.65049 8.61646 9.61358 8.61646 9.61358C8.61646 9.61358 8.73224 9.66071 9.04761 9.23236C9.21632 9.00495 9.40047 8.73799 9.5758 8.68416C9.7787 8.62231 11.4173 9.55986 11.3522 9.49438C11.4669 9.60962 11.3765 9.97908 11.3765 9.97908C11.3765 9.97908 11.4118 10.3924 10.7877 10.8689C10.3764 11.1833 9.69598 11.2581 9.69598 11.2581C9.2676 11.2275 8.84656 11.1312 8.44775 10.9724C7.78282 10.7227 7.08039 10.5126 6.16846 9.68565C5.53496 9.11253 4.9846 8.45439 4.53319 7.73013C4.05351 6.90607 4.06675 6.32194 4.06675 6.32194ZM7.64388 15.1664C6.37245 15.1682 5.12233 14.8409 4.016 14.2167L0 15.5L1.31992 11.5927C0.48696 10.2029 0.138971 8.57759 0.330189 6.97013C0.521407 5.36267 1.24108 3.86341 2.37704 2.7061C3.51299 1.54878 5.00139 0.798447 6.61016 0.572074C8.21893 0.345701 9.85769 0.65601 11.2709 1.45462C12.6842 2.25324 13.7924 3.49527 14.423 4.9871C15.0536 6.47892 15.171 8.13669 14.757 9.70196C14.3429 11.2672 13.4207 12.652 12.134 13.6404C10.8474 14.6289 9.26862 15.1654 7.64388 15.1664ZM7.63174 1.7489C6.50178 1.74471 5.39256 2.05104 4.42601 2.6342C3.45946 3.21735 2.67302 4.05475 2.15319 5.05432C1.63335 6.05389 1.40024 7.17692 1.47948 8.29992C1.55873 9.42292 1.94727 10.5024 2.60237 11.4197L2.01683 13.1884L2.01904 13.1901L1.84812 13.689L2.84164 13.3951C2.84006 13.3932 2.8382 13.3916 2.83613 13.3902L4.19907 12.9629C4.99706 13.4999 5.9104 13.843 6.86567 13.9644C7.82093 14.0858 8.79147 13.9822 9.69924 13.6619C10.607 13.3417 11.4267 12.8137 12.0924 12.1204C12.7581 11.4271 13.2512 10.5879 13.5321 9.67016C13.813 8.75245 13.8739 7.78188 13.7098 6.83647C13.5458 5.89107 13.1613 4.9972 12.5874 4.22675C12.0135 3.4563 11.2662 2.83075 10.4055 2.4004C9.54479 1.97005 8.59474 1.7469 7.63174 1.7489Z" fill="#00C232"/>
<path fill-rule="evenodd" clip-rule="evenodd" d="M4.06675 6.32194C4.0409 5.97855 4.10829 5.63455 4.2619 5.32606C4.3087 5.20316 4.37375 5.08795 4.45487 4.98429C4.59968 4.78913 4.79317 4.63507 5.01615 4.53737C5.01615 4.53737 5.67887 4.47256 5.73622 4.56132C6.04333 5.09249 6.30026 5.65093 6.50369 6.22944C6.60513 6.6078 6.07254 7.03966 6.07254 7.03966C6.07254 7.03966 5.73512 7.21104 6.07254 7.63543C6.32396 7.95216 6.7518 8.5041 7.00873 8.70789C7.28013 8.92916 7.56886 9.12846 7.87215 9.30388C8.49958 9.65049 8.61646 9.61358 8.61646 9.61358C8.61646 9.61358 8.73224 9.66071 9.04761 9.23236C9.21632 9.00495 9.40047 8.73799 9.5758 8.68416C9.7787 8.62231 11.4173 9.55986 11.3522 9.49438C11.4669 9.60962 11.3765 9.97908 11.3765 9.97908C11.3765 9.97908 11.4118 10.3924 10.7877 10.8689C10.3764 11.1833 9.69598 11.2581 9.69598 11.2581C9.2676 11.2275 8.84656 11.1312 8.44775 10.9724C7.78282 10.7227 7.08039 10.5126 6.16846 9.68565C5.53496 9.11253 4.9846 8.45439 4.53319 7.73013C4.05351 6.90607 4.06675 6.32194 4.06675 6.32194ZM7.64388 15.1664C6.37245 15.1682 5.12233 14.8409 4.016 14.2167L0 15.5L1.31992 11.5927C0.48696 10.2029 0.138971 8.57759 0.330189 6.97013C0.521407 5.36267 1.24108 3.86341 2.37704 2.7061C3.51299 1.54878 5.00139 0.798447 6.61016 0.572074C8.21893 0.345701 9.85769 0.65601 11.2709 1.45462C12.6842 2.25324 13.7924 3.49527 14.423 4.9871C15.0536 6.47892 15.171 8.13669 14.757 9.70196C14.3429 11.2672 13.4207 12.652 12.134 13.6404C10.8474 14.6289 9.26862 15.1654 7.64388 15.1664ZM7.63174 1.7489C6.50178 1.74471 5.39256 2.05104 4.42601 2.6342C3.45946 3.21735 2.67302 4.05475 2.15319 5.05432C1.63335 6.05389 1.40024 7.17692 1.47948 8.29992C1.55873 9.42292 1.94727 10.5024 2.60237 11.4197L2.01683 13.1884L2.01904 13.1901L1.84812 13.689L2.84164 13.3951C2.84006 13.3932 2.8382 13.3916 2.83613 13.3902L4.19907 12.9629C4.99706 13.4999 5.9104 13.843 6.86567 13.9644C7.82093 14.0858 8.79147 13.9822 9.69924 13.6619C10.607 13.3417 11.4267 12.8137 12.0924 12.1204C12.7581 11.4271 13.2512 10.5879 13.5321 9.67016C13.813 8.75245 13.8739 7.78188 13.7098 6.83647C13.5458 5.89107 13.1613 4.9972 12.5874 4.22675C12.0135 3.4563 11.2662 2.83075 10.4055 2.4004C9.54479 1.97005 8.59474 1.7469 7.63174 1.7489Z" fill="white"/>
<path fill-rule="evenodd" clip-rule="evenodd" d="M4.06675 6.32194C4.0409 5.97855 4.10829 5.63455 4.2619 5.32606C4.3087 5.20316 4.37375 5.08795 4.45487 4.98429C4.59968 4.78913 4.79317 4.63507 5.01615 4.53737C5.01615 4.53737 5.67887 4.47256 5.73622 4.56132C6.04333 5.09249 6.30026 5.65093 6.50369 6.22944C6.60513 6.6078 6.07254 7.03966 6.07254 7.03966C6.07254 7.03966 5.73512 7.21104 6.07254 7.63543C6.32396 7.95216 6.7518 8.5041 7.00873 8.70789C7.28013 8.92916 7.56886 9.12846 7.87215 9.30388C8.49958 9.65049 8.61646 9.61358 8.61646 9.61358C8.61646 9.61358 8.73224 9.66071 9.04761 9.23236C9.21632 9.00495 9.40047 8.73799 9.5758 8.68416C9.7787 8.62231 11.4173 9.55986 11.3522 9.49438C11.4669 9.60962 11.3765 9.97908 11.3765 9.97908C11.3765 9.97908 11.4118 10.3924 10.7877 10.8689C10.3764 11.1833 9.69598 11.2581 9.69598 11.2581C9.2676 11.2275 8.84656 11.1312 8.44775 10.9724C7.78282 10.7227 7.08039 10.5126 6.16846 9.68565C5.53496 9.11253 4.9846 8.45439 4.53319 7.73013C4.05351 6.90607 4.06675 6.32194 4.06675 6.32194ZM7.64388 15.1664C6.37245 15.1682 5.12233 14.8409 4.016 14.2167L0 15.5L1.31992 11.5927C0.48696 10.2029 0.138971 8.57759 0.330189 6.97013C0.521407 5.36267 1.24108 3.86341 2.37704 2.7061C3.51299 1.54878 5.00139 0.798447 6.61016 0.572074C8.21893 0.345701 9.85769 0.65601 11.2709 1.45462C12.6842 2.25324 13.7924 3.49527 14.423 4.9871C15.0536 6.47892 15.171 8.13669 14.757 9.70196C14.3429 11.2672 13.4207 12.652 12.134 13.6404C10.8474 14.6289 9.26862 15.1654 7.64388 15.1664ZM7.63174 1.7489C6.50178 1.74471 5.39256 2.05104 4.42601 2.6342C3.45946 3.21735 2.67302 4.05475 2.15319 5.05432C1.63335 6.05389 1.40024 7.17692 1.47948 8.29992C1.55873 9.42292 1.94727 10.5024 2.60237 11.4197L2.01683 13.1884L2.01904 13.1901L1.84812 13.689L2.84164 13.3951C2.84006 13.3932 2.8382 13.3916 2.83613 13.3902L4.19907 12.9629C4.99706 13.4999 5.9104 13.843 6.86567 13.9644C7.82093 14.0858 8.79147 13.9822 9.69924 13.6619C10.607 13.3417 11.4267 12.8137 12.0924 12.1204C12.7581 11.4271 13.2512 10.5879 13.5321 9.67016C13.813 8.75245 13.8739 7.78188 13.7098 6.83647C13.5458 5.89107 13.1613 4.9972 12.5874 4.22675C12.0135 3.4563 11.2662 2.83075 10.4055 2.4004C9.54479 1.97005 8.59474 1.7469 7.63174 1.7489Z" fill="black"/>
</svg>
